<?xml version="1.0"?>
<!DOCTYPE svg PUBLIC "-//W3C//DTD SVG 1.1//EN" "http://www.w3.org/Graphics/SVG/1.1/DTD/svg11.dtd">
<svg width="46.92mm" height="8.920000000000062mm" viewBox="0 0 46.92 8.920000000000062" xmlns="http://www.w3.org/2000/svg" version="1.1">
<g id="Body002001" transform="translate(6.460000,0.460000) scale(1,-1)">
<path id="Body002001_f0000"  d="M -6.0 3.109e-14 L 40.0 3.109e-14 L 40.0 -7.999999999999938 L -6.0000000000000036 -7.999999999999938 L -6.0000000000000036 3.109e-14 Z " stroke="#191919" stroke-width="0.35 px" style="stroke-width:0.35;stroke-miterlimit:4;stroke-dasharray:none;fill:#cccccc;fill-opacity:1.0;fill-rule: evenodd"/>
<path id="Body002001_f0001"  d="M 40.0 3.08e-14 L 40.0 0.0 L 40.0 -8.0 L 40.0 -7.999999999999938 L 40.0 3.109e-14 Z " stroke="#191919" stroke-width="0.35 px" style="stroke-width:0.35;stroke-miterlimit:4;stroke-dasharray:none;fill:#cccccc;fill-opacity:1.0;fill-rule: evenodd"/>
<path id="Body002001_f0002"  d="M -6.0000000000000036 2.900000000000043e-16 L -6.0000000000000036 3.109e-14 L -6.0000000000000036 -7.999999999999938 L -6.0000000000000036 -8.0 L -6.0000000000000036 0.0 Z " stroke="#191919" stroke-width="0.35 px" style="stroke-width:0.35;stroke-miterlimit:4;stroke-dasharray:none;fill:#cccccc;fill-opacity:1.0;fill-rule: evenodd"/>
<path id="Body002001_f0003"  d="M 40.0 6.2e-14 L -6.0000000000000036 6.2e-14 L -6.0000000000000036 0.0 L 40.0 0.0 L 40.0 6.2e-14 Z M 27.25 4e-15 M 27.25 1.7763568394002505e-15 L 27.25 1.7763568394002505e-15 Z M 27.25 2e-14 M 27.25 7.105427357601002e-15 L 27.25 7.105427357601002e-15 Z M 27.25 2.7e-14 M 27.25 1.4210854715202004e-14 L 27.25 1.4210854715202004e-14 Z M 7.25 4e-15 M 7.25 1.7763568394002505e-15 L 7.25 1.7763568394002505e-15 Z M 7.25 2e-14 M 7.25 7.105427357601002e-15 L 7.25 7.105427357601002e-15 Z M 7.25 2.7e-14 M 7.25 1.4210854715202004e-14 L 7.25 1.4210854715202004e-14 Z M 16.59000000000043 4.4e-14 L 8.40999999999921 4.4e-14 M 8.40999999999921 4.400000000000001e-14 L 6.5000000000000995 4.5000000000000004e-14 L 6.500000000000096 4.6e-14 M 6.500000000000094 4.6e-14 L 8.409999999999489 4.6e-14 L 16.590000000000707 4.6e-14 M 16.590000000000707 4.6e-14 L 18.5000000000001 4.6e-14 L 18.500000000000096 4.5e-14 M 18.500000000000096 4.5e-14 L 16.59000000000043 4.4e-14 Z M 9.749999999999996 4.9e-14 M 9.749999999999996 2.842170943040401e-14 L 9.749999999999996 2.842170943040401e-14 Z M 8.292717862914705 5.3e-14 M 8.292717862914705 2.665e-14 L 16.70728213708529 2.665e-14 L 8.292717862914705 2.665e-14 Z M 9.749999999999996 5.8e-14 M 9.749999999999996 2.842170943040401e-14 L 9.749999999999996 2.842170943040401e-14 Z " stroke="#191919" stroke-width="0.35 px" style="stroke-width:0.35;stroke-miterlimit:4;stroke-dasharray:none;fill:#cccccc;fill-opacity:1.0;fill-rule: evenodd"/>
<path id="Body002001_f0004"  d="M 40.0 -7.999999999999938 L -6.0000000000000036 -7.999999999999938 L -6.0000000000000036 -8.0 L 40.0 -8.0 L 40.0 -7.999999999999938 Z M 27.25 -7.999999999999996 M 27.25 -7.999999999999998 L 27.25 -7.999999999999998 Z M 27.25 -7.99999999999998 M 27.25 -7.99999999999999 L 27.25 -7.99999999999999 Z M 27.25 -7.999999999999973 M 27.25 -7.999999999999987 L 27.25 -7.999999999999987 Z M 7.25 -7.999999999999996 M 7.25 -7.999999999999998 L 7.25 -7.999999999999998 Z M 7.25 -7.99999999999998 M 7.25 -7.99999999999999 L 7.25 -7.99999999999999 Z M 7.25 -7.999999999999973 M 7.25 -7.999999999999987 L 7.25 -7.999999999999987 Z M 18.5000000000001 -7.999999999999954 L 18.500000000000096 -7.999999999999956 M 18.500000000000096 -7.999999999999956 L 16.59000000000043 -7.999999999999956 L 8.40999999999921 -7.999999999999956 M 8.40999999999921 -7.999999999999956 L 6.5000000000000995 -7.999999999999956 L 6.500000000000096 -7.999999999999954 M 6.500000000000094 -7.999999999999954 L 8.409999999999489 -7.999999999999954 L 16.590000000000707 -7.999999999999954 M 16.590000000000707 -7.999999999999954 L 18.5000000000001 -7.999999999999954 Z M 9.749999999999996 -7.99999999999995 M 9.749999999999996 -7.999999999999975 L 9.749999999999996 -7.999999999999975 Z M 8.292717862914705 -7.999999999999947 M 8.292717862914705 -7.999999999999973 L 16.70728213708529 -7.999999999999973 L 8.292717862914705 -7.999999999999973 Z M 9.749999999999996 -7.999999999999943 M 9.749999999999996 -7.999999999999972 L 9.749999999999996 -7.999999999999972 Z " stroke="#191919" stroke-width="0.35 px" style="stroke-width:0.35;stroke-miterlimit:4;stroke-dasharray:none;fill:#cccccc;fill-opacity:1.0;fill-rule: evenodd"/>
<path id="Body002001_f0005"  d="M 40.0 0.0 L -6.0000000000000036 0.0 L -6.0000000000000036 -8.0 L 40.0 -8.0 L 40.0 0.0 Z " stroke="#191919" stroke-width="0.35 px" style="stroke-width:0.35;stroke-miterlimit:4;stroke-dasharray:none;fill:#cccccc;fill-opacity:1.0;fill-rule: evenodd"/>
<path id="Body002001_f0006"  d="M 27.25 4e-15 M 27.25 1.7763568394002505e-15 L 27.25 1.7763568394002505e-15 L 27.25 -7.999999999999996 M 27.25 -7.999999999999998 L 27.25 -7.999999999999998 Z " stroke="#191919" stroke-width="0.35 px" style="stroke-width:0.35;stroke-miterlimit:4;stroke-dasharray:none;fill:#cccccc;fill-opacity:1.0;fill-rule: evenodd"/>
<path id="Body002001_f0007"  d="M 27.25 2e-14 M 27.25 7.105427357601002e-15 L 27.25 7.105427357601002e-15 L 27.25 -7.99999999999998 M 27.25 -7.99999999999999 L 27.25 -7.99999999999999 Z " stroke="#191919" stroke-width="0.35 px" style="stroke-width:0.35;stroke-miterlimit:4;stroke-dasharray:none;fill:#cccccc;fill-opacity:1.0;fill-rule: evenodd"/>
<path id="Body002001_f0008"  d="M 27.25 2.7e-14 M 27.25 1.4210854715202004e-14 L 27.25 1.4210854715202004e-14 L 27.25 -7.999999999999973 M 27.25 -7.999999999999987 L 27.25 -7.999999999999987 Z " stroke="#191919" stroke-width="0.35 px" style="stroke-width:0.35;stroke-miterlimit:4;stroke-dasharray:none;fill:#cccccc;fill-opacity:1.0;fill-rule: evenodd"/>
<path id="Body002001_f0009"  d="M 7.25 4e-15 M 7.25 1.7763568394002505e-15 L 7.25 1.7763568394002505e-15 L 7.25 -7.999999999999996 M 7.25 -7.999999999999998 L 7.25 -7.999999999999998 Z " stroke="#191919" stroke-width="0.35 px" style="stroke-width:0.35;stroke-miterlimit:4;stroke-dasharray:none;fill:#cccccc;fill-opacity:1.0;fill-rule: evenodd"/>
<path id="Body002001_f0010"  d="M 7.25 2e-14 M 7.25 7.105427357601002e-15 L 7.25 7.105427357601002e-15 L 7.25 -7.99999999999998 M 7.25 -7.99999999999999 L 7.25 -7.99999999999999 Z " stroke="#191919" stroke-width="0.35 px" style="stroke-width:0.35;stroke-miterlimit:4;stroke-dasharray:none;fill:#cccccc;fill-opacity:1.0;fill-rule: evenodd"/>
<path id="Body002001_f0011"  d="M 7.25 2.7e-14 M 7.25 1.4210854715202004e-14 L 7.25 1.4210854715202004e-14 L 7.25 -7.999999999999973 M 7.25 -7.999999999999987 L 7.25 -7.999999999999987 Z " stroke="#191919" stroke-width="0.35 px" style="stroke-width:0.35;stroke-miterlimit:4;stroke-dasharray:none;fill:#cccccc;fill-opacity:1.0;fill-rule: evenodd"/>
<path id="Body002001_f0012"  d="M 16.590000000000426 2.2019800000000134e-14 M 16.590000000000426 2.2019800000000134e-14 L 18.500000000000096 2.244e-14 L 18.500000000000096 -7.999999999999956 M 18.500000000000096 -7.999999999999978 L 16.590000000000426 -7.999999999999978 L 16.590000000000426 2.201e-14 Z " stroke="#191919" stroke-width="0.35 px" style="stroke-width:0.35;stroke-miterlimit:4;stroke-dasharray:none;fill:#cccccc;fill-opacity:1.0;fill-rule: evenodd"/>
<path id="Body002001_f0013"  d="M 18.500000000000096 4.5e-14 L 18.500000000000096 -7.999999999999956 L 18.500000000000096 -7.999999999999954 L 18.500000000000096 2.276e-14 L 18.500000000000096 2.244e-14 Z " stroke="#191919" stroke-width="0.35 px" style="stroke-width:0.35;stroke-miterlimit:4;stroke-dasharray:none;fill:#cccccc;fill-opacity:1.0;fill-rule: evenodd"/>
<path id="Body002001_f0014"  d="M 8.40999999999921 4.4e-14 L 8.40999999999921 -7.999999999999956 L 16.59000000000043 -7.999999999999956 L 16.590000000000426 2.201e-14 L 8.40999999999921 2.201e-14 Z " stroke="#191919" stroke-width="0.35 px" style="stroke-width:0.35;stroke-miterlimit:4;stroke-dasharray:none;fill:#cccccc;fill-opacity:1.0;fill-rule: evenodd"/>
<path id="Body002001_f0015"  d="M 18.500000000000096 2.2759999999999996e-14 M 18.500000000000096 2.2759999999999996e-14 L 16.590000000000707 2.3180199999999865e-14 L 16.590000000000707 -7.999999999999954 M 16.590000000000707 -7.999999999999977 L 18.500000000000096 -7.999999999999977 L 18.500000000000096 2.276e-14 Z " stroke="#191919" stroke-width="0.35 px" style="stroke-width:0.35;stroke-miterlimit:4;stroke-dasharray:none;fill:#cccccc;fill-opacity:1.0;fill-rule: evenodd"/>
<path id="Body002001_f0016"  d="M 6.500000000000098 2.244e-14 M 6.500000000000098 2.244e-14 L 8.409999999999208 2.2019800000000134e-14 L 8.40999999999921 -7.999999999999956 M 8.40999999999921 -7.999999999999978 L 6.500000000000098 -7.999999999999978 L 6.500000000000098 2.244e-14 Z " stroke="#191919" stroke-width="0.35 px" style="stroke-width:0.35;stroke-miterlimit:4;stroke-dasharray:none;fill:#cccccc;fill-opacity:1.0;fill-rule: evenodd"/>
<path id="Body002001_f0017"  d="M 16.590000000000707 4.6e-14 L 16.590000000000707 -7.999999999999954 L 8.409999999999489 -7.999999999999954 L 8.409999999999489 2.318e-14 L 16.590000000000707 2.318e-14 Z " stroke="#191919" stroke-width="0.35 px" style="stroke-width:0.35;stroke-miterlimit:4;stroke-dasharray:none;fill:#cccccc;fill-opacity:1.0;fill-rule: evenodd"/>
<path id="Body002001_f0018"  d="M 6.500000000000098 4.6e-14 L 6.500000000000098 -7.999999999999954 L 6.500000000000098 -7.999999999999956 L 6.500000000000098 2.244e-14 L 6.500000000000098 2.276e-14 Z " stroke="#191919" stroke-width="0.35 px" style="stroke-width:0.35;stroke-miterlimit:4;stroke-dasharray:none;fill:#cccccc;fill-opacity:1.0;fill-rule: evenodd"/>
<path id="Body002001_f0019"  d="M 8.409999999999489 2.3180199999999865e-14 M 8.409999999999489 2.3180199999999865e-14 L 6.500000000000098 2.276e-14 L 6.500000000000098 -7.999999999999954 M 6.500000000000098 -7.999999999999977 L 8.409999999999489 -7.999999999999977 L 8.409999999999489 2.318e-14 Z " stroke="#191919" stroke-width="0.35 px" style="stroke-width:0.35;stroke-miterlimit:4;stroke-dasharray:none;fill:#cccccc;fill-opacity:1.0;fill-rule: evenodd"/>
<path id="Body002001_f0020"  d="M 9.749999999999996 4.9e-14 M 9.749999999999996 2.842170943040401e-14 L 9.749999999999996 2.842170943040401e-14 L 9.749999999999996 -7.99999999999995 M 9.749999999999996 -7.999999999999975 L 9.749999999999996 -7.999999999999975 Z " stroke="#191919" stroke-width="0.35 px" style="stroke-width:0.35;stroke-miterlimit:4;stroke-dasharray:none;fill:#cccccc;fill-opacity:1.0;fill-rule: evenodd"/>
<path id="Body002001_f0021"  d="M 8.292717862914705 5.3e-14 M 8.292717862914705 2.665e-14 L 16.70728213708529 2.665e-14 L 8.292717862914705 2.665e-14 L 8.292717862914705 -7.999999999999947 M 8.292717862914705 -7.999999999999973 L 16.70728213708529 -7.999999999999973 L 8.292717862914705 -7.999999999999973 Z " stroke="#191919" stroke-width="0.35 px" style="stroke-width:0.35;stroke-miterlimit:4;stroke-dasharray:none;fill:#cccccc;fill-opacity:1.0;fill-rule: evenodd"/>
<path id="Body002001_f0022"  d="M 9.749999999999996 5.8e-14 M 9.749999999999996 2.842170943040401e-14 L 9.749999999999996 2.842170943040401e-14 L 9.749999999999996 -7.999999999999943 M 9.749999999999996 -7.999999999999972 L 9.749999999999996 -7.999999999999972 Z " stroke="#191919" stroke-width="0.35 px" style="stroke-width:0.35;stroke-miterlimit:4;stroke-dasharray:none;fill:#cccccc;fill-opacity:1.0;fill-rule: evenodd"/>
<title>b'Front Left Plate Frame001'</title>
</g>
</svg>